<svg xmlns="http://www.w3.org/2000/svg" width="256" height="256"><path fill-opacity=".016" d="M0 128.004v128.004l128.25-.254 128.25-.254.254-127.75L257.008 0H0v128.004m.485.496c0 70.4.119 99.053.265 63.672.146-35.38.146-92.98 0-128C.604 29.153.485 58.1.485 128.5" fill="#1976D2" fill-rule="evenodd"/><path fill-opacity=".442" d="M11 128v128h233V0H11v128m121.478 107.851c-.413.418-96.008 1.564-105.728 1.267l-6.75-.206v3.579c0 3.269.173 3.487 2 2.509 1.1-.589 2-1.677 2-2.419 0-2.762 4.031-2.492 7.437.498 4.049 3.555 4.59 3.585 7.563.421 2.812-2.993 5.398-3.197 7.238-.571.743 1.062 2.596 2.242 4.118 2.624 2.292.576 2.862.329 3.325-1.44 1.037-3.966 8-4.049 9.031-.108.361 1.382 1.365 1.995 3.266 1.995 2.388 0 2.683-.324 2.267-2.5-.447-2.339-.213-2.5 3.638-2.5 3.725 0 4.117.238 4.117 2.5 0 2.7 1.17 3.016 6.915 1.867 2.497-.499 3.104-1.081 2.875-2.75-.435-3.174 3.924-3.548 5.099-.437.482 1.276.677 2.658.435 3.07-.243.412 1.437.75 3.734.75 3.914 0 4.145-.156 3.697-2.5-.308-1.613-.024-2.5.802-2.5 2.624 0 4.443 1.272 4.443 3.107 0 1.618.766 1.893 5.263 1.893 4.444 0 5.416-.34 6.25-2.185 1.366-3.026 3.076-3.318 5.161-.882 2.325 2.715 3.741 2.608 5.734-.433 2.283-3.484 5.482-3.252 6.898.5l1.132 3h52.722c30.987 0 52.956-.379 53.29-.919.313-.506-.114-1.602-.948-2.437-.94-.939-1.134-1.754-.51-2.139 1.78-1.1 1.077-2.505-1.252-2.505-1.883 0-2.259.54-2.25 3.235.012 3.891-2.326 4.758-6.123 2.27-2.427-1.59-2.461-1.744-.796-3.583 1.682-1.859 1.631-1.922-1.538-1.922-2.8 0-3.097.219-2.033 1.5 1.651 1.989-.326 4.5-3.543 4.5-1.75 0-2.458-.729-2.969-3.056-.469-2.134-1.171-2.952-2.33-2.713-.988.203-1.526 1.092-1.331 2.199.377 2.146-1.382 3.533-4.511 3.555-1.643.011-2.261-.665-2.5-2.735-.4-3.477-4.147-3.94-4.626-.573-.44 3.087-2.568 4.517-5.594 3.758-2.767-.695-3.434-3.197-1.396-5.235.933-.933.656-1.197-1.25-1.185-3.367.021-4.687 1.051-5.099 3.975-.193 1.369-1.111 2.634-2.04 2.811-1.99.379-6.153-3.438-5.284-4.845.33-.533-.026-1.21-.791-1.504-1.891-.725-7.001 1.31-6.268 2.496.323.523-.353 1.455-1.504 2.071-2.811 1.505-5.359-.412-3.978-2.993 1.206-2.254.393-3.026-3.184-3.026-1.856 0-3.055.616-3.406 1.75-1.658 5.366-5.356 6.668-6.393 2.25-.576-2.455-.798-2.509-12.383-3-6.487-.275-11.951-.342-12.142-.149m10.674 2.034c-2.086 1.322-.94 4.571 1.745 4.952 2.724.387 4.081-1.205 3.364-3.948-.52-1.987-2.838-2.443-5.109-1.004" fill="#1976D2" fill-rule="evenodd"/><path fill-opacity=".336" d="M11 128v128h233V0H11v128m117.681-99.347c-.359.358-2 .614-3.647.567-2.011-.057-3.595.678-4.821 2.236-1.631 2.074-2.084 2.183-4.248 1.025-2.006-1.073-2.889-1.054-5.144.112-1.497.774-3.663 1.407-4.814 1.407-2.154 0-3.007.553-8.096 5.25-1.639 1.513-4.034 2.75-5.323 2.75-2.635 0-5.097 2.367-4.115 3.956.355.574.168 1.044-.414 1.044S87 47.637 87 48.417c0 .779-.562 1.643-1.25 1.921-.974.393-.965.522.039.583 1.053.064 1.053.335 0 1.474-.709.767-1.627 1.191-2.039.941-.412-.25-.75.274-.75 1.164 0 1.011.469 1.348 1.25.899.726-.418.901-.338.417.191-.459.5-1.246.966-1.75 1.035-.505.069-1.394.181-1.976.25-.582.069-.805.537-.494 1.04.311.503.077 1.077-.519 1.276-.597.199-1.248 2.106-1.446 4.239-.198 2.132-.937 4.233-1.643 4.67-.974.602-.859.955.482 1.47.971.372 2.047.396 2.391.051C80.824 68.509 84 72.238 84 74.655 84 76.668 83.505 77 80.5 77c-2.638 0-3.519.431-3.577 1.75-.042.963-.227 2.54-.412 3.505-.184.965.619 2.423 1.786 3.241 1.659 1.162 1.858 1.749.912 2.695-1.641 1.641-1.532 4.809.166 4.809.813 0 1.375 1.059 1.375 2.589 0 2.532 5.161 8.411 7.383 8.411.555 0 1.726.716 2.6 1.591 1.455 1.454 1.262 1.562-2.241 1.26-2.108-.182-3.98.115-4.16.659-.18.545.909 1.082 2.421 1.195 5.169.386 6.696.796 8.483 2.278 1.703 1.412 1.704 1.516.026 2.179-1.339.53-1.402.725-.262.813.825.063.15.697-1.5 1.409-2.952 1.273-2.963 1.306-.695 2.04l2.304.745-2.606 2.416c-1.436 1.331-2.022 2.422-1.305 2.43.937.011.881.288-.198.985-1 .646-1.083.974-.25.985.688.008 1.25.425 1.25.927 0 .501-.787.784-1.75.629-2.445-.393-5.445 1.335-4.623 2.664.396.641.227.823-.403.433-.597-.369-1.339-.26-1.649.241-1.079 1.746 2.379 2.024 4.09.329 1.625-1.611 1.685-1.608 1.06.042-.727 1.921.014 2.201 2.184.827 2.084-1.319 4.245-.137 3.58 1.957-.314.989-.033 2.13.625 2.536.755.467.932.314.481-.415-.485-.786.369-1.155 2.675-1.155 2.871 0 3.377.344 3.309 2.25-.067 1.923.357 2.2 2.921 1.905 1.65-.189 3.15-.752 3.333-1.25.184-.498 1.223-.905 2.309-.905 1.087 0 1.698-.45 1.358-1-.34-.55.022-1 .803-1 .89 0 1.328.86 1.17 2.296-.206 1.879.269 2.335 2.623 2.514 1.777.136 3.643-.549 4.889-1.795 1.108-1.108 2.582-2.015 3.274-2.015 1.886 0 4.017-3.731 2.455-4.297-2.299-.834 8.106-1.901 11.424-1.173 2.995.658 3.189.569 1.97-.9-1.143-1.377-1.132-1.63.07-1.63.782 0 1.85.411 2.372.914.92.884 3.733 1.438 6.106 1.201 1.364-.136.559-4.115-.832-4.115-.518 0-.683-.419-.367-.931.317-.512.138-1.201-.397-1.532-.535-.331-.737-1.214-.45-1.964.288-.75-.018-3.323-.679-5.718-.662-2.395-1.334-5.424-1.493-6.731-.418-3.431-1.353-3.993-6.938-4.172-6.471-.208-16.241-4.803-21.895-10.298-4.252-4.132-6.691-9.297-7.144-15.129-.129-1.664-.342-3.137-.473-3.275-.131-.138-.301-.588-.378-1-.077-.412-.466-1.262-.864-1.887-.398-.625-.11-1.646.64-2.268.75-.623 1.364-2.343 1.364-3.822s.502-2.857 1.116-3.062c.614-.204 1.833-1.882 2.709-3.728 1.12-2.361 2.061-3.176 3.173-2.75 1.132.435 1.347.23.76-.721-.616-.995-.282-1.186 1.336-.763 2.33.609 9.156-1.118 9.156-2.317 0-.403 1.376-.638 3.058-.521 1.681.116 3.283-.153 3.559-.6.275-.446.951-.811 1.501-.811.55 0 .662.563.249 1.25-.517.861-.229.827.928-.112.924-.749 2.46-1.062 3.414-.696 1.496.574 1.532.809.263 1.706-1.21.855-1.156.939.301.469.975-.314 2.55.123 3.5.972.95.849 3.71 2.816 6.134 4.371 3.681 2.36 4.865 2.667 7.179 1.86 1.858-.648 3.433-.613 4.776.106 1.655.886 2.114.725 2.638-.927.349-1.099 1.392-2.013 2.317-2.031 2.112-.04 5.374-2.444 4.501-3.317-.358-.358-.126-.651.515-.651 1.972 0 1.29-3.155-.8-3.702-1.082-.282-2.237-1.365-2.567-2.406-.331-1.041-1.275-1.892-2.1-1.892-.825 0-3.021-1.16-4.88-2.578-1.859-1.419-4.417-2.494-5.683-2.39-4.061.334-4.539.036-4.05-2.522.37-1.936-.05-2.685-1.888-3.368-1.301-.484-2.872-.686-3.492-.451-.62.236-2.59-.461-4.378-1.548-2.207-1.342-4.285-1.808-6.478-1.452-2.676.434-3.322.164-3.779-1.584-.548-2.097-1.813-2.699-3.057-1.454M99.543 67.931c-.317.512-.193 1.167.274 1.456.467.289.85-.13.85-.931 0-1.686-.316-1.833-1.124-.525M103.5 125c-.34.55-.168 1 .382 1s1.278-.45 1.618-1c.34-.55.168-1-.382-1s-1.278.45-1.618 1m.579 10.583c.048 1.165.285 1.402.604.605.289-.722.253-1.585-.079-1.917-.332-.332-.568.258-.525 1.312m-20.599.384c.329.532-.32 1.541-1.441 2.241-1.122.7-2.039 2.073-2.039 3.052 0 1.433.534 1.65 2.75 1.118 1.513-.362 2.866-.749 3.007-.859.666-.517-1.121-6.519-1.941-6.519-.514 0-.665.435-.336.967m17.127 5.961c-1.591 1.045-3.391 1.721-4 1.504-.609-.218-2.232.485-3.607 1.564-2.455 1.925-2.461 1.96-.309 1.982 1.205.012 2.461.459 2.792.994.72 1.165-2.045 5.832-4.919 8.303-1.135.976-1.614 1.711-1.064 1.632 2.248-.323 2.676.175 1.437 1.669-1.084 1.306-1.062 1.75.127 2.587 1.088.765.863.884-.925.488-1.753-.387-2.49-.024-2.866 1.414-.279 1.064-.904 1.935-1.39 1.935-.485 0-.77.542-.633 1.205.138.662-.275 1.225-.917 1.25-.641.025-1.541.455-2 .955-.479.524-.331.623.348.234.649-.372 1.468-.212 1.819.356s1.127.731 1.724.362c.661-.409.796-.204.346.524-.406.658-1.537.942-2.513.632-.978-.31-2.338.116-3.029.948-.69.832-1.654 1.265-2.141.964-.488-.301-.887-.109-.887.428 0 .536.557 1.161 1.238 1.388.984.328.983.974-.004 3.141-1.446 3.172-.644 7.613 1.374 7.613 1.352 0 1.804 1.165 1.463 3.766-.091.696.193 1.187.632 1.091 1.259-.276 4.297 1.271 4.297 2.188 0 3.13 13.949 12.45 14.833 9.912.724-2.078 4.18-.832 5.667 2.043.952 1.841 2.337 3 3.585 3 1.118 0 1.801-.376 1.517-.835-.96-1.554 8.517.525 10.214 2.24 1.58 1.598 1.561 1.663-.316 1.055-1.583-.513-1.692-.431-.523.395 1.058.747 1.91.67 3-.273 1.554-1.343 5.281-1.808 4.511-.563-.233.378.124 1.374.794 2.214 1.537 1.927 6.84 3.289 6.475 1.663-.141-.63.368-1.373 1.132-1.651.966-.351 1.136-.084.558.875-.627 1.042-.37 1.013 1.053-.12 1.036-.825 1.578-.989 1.203-.364-.393.656.16 1.356 1.307 1.656 1.094.286 2.251.094 2.573-.426.337-.546 3.062-.666 6.445-.283 5.668.641 5.955.559 8.759-2.51 1.594-1.746 3.896-3.249 5.115-3.341 1.747-.131 2.081-.598 1.576-2.199-.779-2.467-.995-3.59-1.954-10.155-1.137-7.785-1.236-7.853-11.738-8.069-11.427-.235-14.097-.546-14.96-1.745-.399-.555-1.301-.415-2.215.343-1.278 1.062-2.099.89-4.826-1.008-1.807-1.257-4.608-3.549-6.225-5.093-1.617-1.543-3.802-2.806-4.857-2.806-1.265 0-1.727-.494-1.36-1.452.317-.825-1.137-3.501-3.371-6.204-2.16-2.615-3.6-4.999-3.2-5.299 1.161-.87 1.212-6.045.059-6.045-.575 0-.799-.642-.497-1.427.301-.785-.101-1.965-.893-2.622-.793-.658-1.441-1.741-1.441-2.407 0-.666-.655-1.211-1.456-1.211-.801 0-1.249.335-.997.743.752 1.217-.66 3.924-2.047 3.924-.707 0-1.545.675-1.862 1.5-.316.825-.113 1.5.452 1.5.566 0 .762.43.438.955-.763 1.235-6.448.776-9.028-.728-1.174-.685-1.44-1.179-.643-1.197.769-.017 1.116-.658.801-1.479-.349-.909-.075-1.265.733-.955.709.272 1.874-.211 2.59-1.073 1.119-1.348 1.036-1.476-.59-.911-1.784.62-1.78.571.067-.866 1.077-.838 2.652-1.282 3.5-.988 1.25.435 1.305.281.292-.811-1.984-2.138-1.45-3.099.699-1.259 2.279 1.952 1.656 3.704-1.063 2.992-1.039-.271-1.67-.14-1.403.293.738 1.194 4.447 1.949 5.02 1.022.277-.449.601-1.982.719-3.406.218-2.638 1.618-3.335 3.328-1.656.589.578 1.611.444 2.691-.354 1.645-1.215 1.636-1.381-.166-3.011-1.794-1.623-2.058-1.625-4.49-.031-1.555 1.018-2.585 1.249-2.585.578 0-.613.563-1.122 1.25-1.13.865-.011.911-.242.15-.75-.605-.404-1.28-1.291-1.5-1.971-.29-.896-1.196-.713-3.293.664M95 145c0 .55.477 1 1.059 1s.781-.45.441-1-.816-1-1.059-1-.441.45-.441 1m13.638.5c.317.825 1.033 1.5 1.591 1.5.586 0 .489-.635-.229-1.5-.685-.825-1.401-1.5-1.591-1.5-.19 0-.087.675.229 1.5m-18.982 6.045c.304.794.956 1.195 1.449.89 1.24-.766 1.126-1.132-.554-1.777-.967-.371-1.265-.076-.895.887m-5.32.124c.367.368-.095 1.512-1.028 2.543-1.288 1.424-1.344 1.739-.23 1.312.806-.31 2.022-1.454 2.702-2.543 1.048-1.679.981-1.981-.438-1.981-.922 0-1.374.301-1.006.669m22.477 6.014c.721.289 1.584.253 1.916-.079.332-.332-.258-.568-1.312-.525-1.165.048-1.402.285-.604.604m-28.544 4.01c.973.254 2.323.237 3-.037.677-.274-.119-.481-1.769-.461-1.65.02-2.204.244-1.231.498M88.5 165c.34.55.816 1 1.059 1s.441-.45.441-1-.477-1-1.059-1-.781.45-.441 1m-7.436 10.578c.712.857.707 1.446-.015 1.892-.577.356-1.033 1.409-1.014 2.339.028 1.295.333 1.156 1.302-.59.697-1.255 1.581-2.043 1.965-1.75.384.292.48.238.214-.12-.267-.358.243-1.183 1.132-1.833 1.371-1.003 1.143-1.183-1.5-1.183-2.372 0-2.87.298-2.084 1.245m6.641 4.86c-2.2 2.2-2.213 3.22-.018 1.434 1.457-1.184 1.608-1.159 1.104.19-.464 1.241.008 1.474 2.302 1.138 2.805-.412 3.155-2.2.431-2.2-.746 0-1.527-.51-1.735-1.134-.245-.733-.98-.532-2.084.572m7.506 5.1c-1.096 1.242-.869 1.46 1.5 1.447 1.955-.011 2.381-.274 1.426-.879-1.151-.729-1.151-.948 0-1.406 1.065-.423 1.035-.551-.137-.583-.825-.023-2.08.617-2.789 1.421m8.789.084c0 1.389.252 1.43 1.75.283a93.003 93.003 0 012.167-1.622c.229-.156-.559-.283-1.75-.283-1.332 0-2.167.625-2.167 1.622m1 3.378c-.825.533-1.05.969-.5.969s1.675-.436 2.5-.969c.825-.533 1.05-.969.5-.969s-1.675.436-2.5.969m24.5 3c.34.55.816 1 1.059 1s.441-.45.441-1-.477-1-1.059-1-.781.45-.441 1M104 204c0 .55.45 1 1 1s1-.45 1-1-.45-1-1-1-1 .45-1 1m64.877 30.456c-.509.51-128.037 2.05-141.127 1.705l-7.75-.205v4.022c0 3.594.259 4.022 2.433 4.022 1.554 0 2.661-.722 3.067-2 .349-1.1 1.276-2 2.059-2 .783 0 1.986.9 2.673 2 1.711 2.739 7.797 2.73 10.282-.016l1.824-2.015 2.145 2.015c2.912 2.736 9.449 2.744 11.785.016 2.881-3.365 5.354-2.465 4.807 1.75-.115.884 1.671 1.25 6.104 1.25 5.976 0 6.163-.072 4.027-1.568-2.508-1.757-2.091-3.432.853-3.432 1.393 0 1.941.691 1.941 2.448v2.447l25.51-.002 25.511-.002 2.544-2.696 2.545-2.695 2.232 2.75 2.233 2.75h106.312l-.114-5.001-.114-5.001-25.08.283c-13.793.155-25.681.656-26.416 1.114-.736.457-1.123 1.651-.861 2.653.263 1.003-.134 2.057-.88 2.344-1.765.677-2.607-.747-1.755-2.966.429-1.118.287-1.515-.392-1.096-.586.362-1.304.038-1.595-.72-.35-.914-2.191-1.379-5.453-1.379-2.709 0-5.813-.282-6.898-.627-1.086-.344-2.189-.411-2.452-.148m28.852 3.676c-2.122 1.187-2.218 2.466-.244 3.224.864.332 1.91-.225 2.502-1.333 1.227-2.291.117-3.22-2.258-1.891m22.459.607c.502 2.606 3.812 2.897 3.812.334 0-1.431-.642-2.073-2.073-2.073s-1.97.539-1.739 1.739m10.749-.163c-1.084 1.307-1.063 1.732.127 2.485 2.292 1.45 2.936 1.108 2.936-1.561 0-2.86-1.165-3.211-3.063-.924m-71.937.483c0 .582.45.781 1 .441s1-.816 1-1.059-.45-.441-1-.441-1 .477-1 1.059m12.5-.059c-.34.55.11 1 1 1s1.34-.45 1-1c-.34-.55-.79-1-1-1-.21 0-.66.45-1 1m38.201-.368c-1.367 1.367-.673 2.503 1.339 2.188 1.121-.176 2.045-.77 2.052-1.32.017-1.217-2.418-1.84-3.391-.868" fill="#1976D2" fill-rule="evenodd"/><path fill-opacity=".978" d="M11 128v128h233V0H11v128M118.5 18.505c-.55.191-7.525 2.241-15.5 4.555-7.975 2.314-15.85 5.027-17.5 6.029-3.77 2.29-17.059 16.828-20.86 22.82-2.702 4.258-2.897 5.318-3.51 19.05-.613 13.72-.496 15.134 2.071 25.041 1.496 5.775 3.807 13.676 5.134 17.557l2.415 7.057-3.347 6.943c-1.841 3.819-3.359 7.763-3.375 8.765-.015 1.002-1.196 6.852-2.623 13-4.468 19.244-2.276 30.768 9.063 47.645C77.339 207.194 87.243 218 89.746 218c.69 0 1.254.45 1.254 1 0 .648-12.5 1-35.5 1H20v34h221V222.315l-17.25-.655c-9.488-.359-21.075-.655-25.75-.656l-8.5-.003.283-25 .284-25.001h20.8l.317-9.75c.174-5.362.183-12.787.02-16.5l-.295-6.75h-9.848c-11.355 0-11.061.255-11.061-9.582V122h21v-21.441c0-12.666-.394-21.685-.963-22.036-.53-.327-3.977-5.192-7.662-10.809-7.955-12.13-30.18-35.362-38.853-40.614-7.485-4.533-26.088-9.13-36.501-9.021-4.137.043-7.971.235-8.521.426M139 56.032c0 1.199 2.561 1.857 3.933 1.01.839-.519.397-.937-1.341-1.269-1.426-.273-2.592-.156-2.592.259m5.813 44.651c.721.289 1.584.253 1.916-.079.332-.332-.258-.568-1.312-.525-1.165.048-1.402.285-.604.604m-23.384 55.244c0 1.059.353 1.708.785 1.441 1.022-.632 1.022-3.368 0-3.368-.432 0-.785.867-.785 1.927m-3.679 57.735c.688.278 1.813.278 2.5 0 .688-.277.125-.504-1.25-.504s-1.937.227-1.25.504m102.853 25.505c.283.458.938.833 1.456.833s.941-.375.941-.833c0-.459-.655-.834-1.456-.834-.801 0-1.224.375-.941.834m-194.13 2.877c-.325.526.336.956 1.468.956 2.415 0 2.658-.556.591-1.349-.807-.31-1.734-.133-2.059.393m14.899.25c-.381.663-.324.872.126.465.45-.408 1.422-.24 2.16.372.844.7 1.342.737 1.342.098 0-1.561-2.848-2.296-3.628-.935m17.441 1.389c.721.289 1.584.253 1.916-.079.332-.332-.258-.568-1.312-.525-1.165.048-1.402.285-.604.604" fill="#1976D2" fill-rule="evenodd"/></svg>